<mxfile host="65bd71144e">
    <diagram id="s8RdSpvGGPMK100c2pMG" name="Page-1">
        <mxGraphModel dx="2013" dy="1139" grid="1" gridSize="10" guides="1" tooltips="1" connect="1" arrows="1" fold="1" page="0" pageScale="1" pageWidth="850" pageHeight="1100" background="#050505" math="0" shadow="0">
            <root>
                <mxCell id="0"/>
                <mxCell id="1" parent="0"/>
                <mxCell id="91" style="edgeStyle=none;html=1;exitX=1;exitY=0;exitDx=0;exitDy=0;entryX=0;entryY=0.5;entryDx=0;entryDy=0;fontSize=10;fontColor=#FF8000;endArrow=block;endFill=0;endSize=12;" edge="1" parent="1" source="2" target="31">
                    <mxGeometry relative="1" as="geometry"/>
                </mxCell>
                <mxCell id="2" value="Instructor" style="swimlane;fontStyle=1;align=center;verticalAlign=top;childLayout=stackLayout;horizontal=1;startSize=26;horizontalStack=0;resizeParent=1;resizeParentMax=0;resizeLast=0;collapsible=1;marginBottom=0;" parent="1" vertex="1">
                    <mxGeometry x="10" y="710" width="230" height="268" as="geometry"/>
                </mxCell>
                <mxCell id="3" value="instructorID" style="text;strokeColor=none;fillColor=none;align=left;verticalAlign=top;spacingLeft=4;spacingRight=4;overflow=hidden;rotatable=0;points=[[0,0.5],[1,0.5]];portConstraint=eastwest;" parent="2" vertex="1">
                    <mxGeometry y="26" width="230" height="26" as="geometry"/>
                </mxCell>
                <mxCell id="43" value="instructorName" style="text;strokeColor=none;fillColor=none;align=left;verticalAlign=top;spacingLeft=4;spacingRight=4;overflow=hidden;rotatable=0;points=[[0,0.5],[1,0.5]];portConstraint=eastwest;" vertex="1" parent="2">
                    <mxGeometry y="52" width="230" height="26" as="geometry"/>
                </mxCell>
                <mxCell id="61" value="instructorEmail" style="text;strokeColor=none;fillColor=none;align=left;verticalAlign=top;spacingLeft=4;spacingRight=4;overflow=hidden;rotatable=0;points=[[0,0.5],[1,0.5]];portConstraint=eastwest;" vertex="1" parent="2">
                    <mxGeometry y="78" width="230" height="26" as="geometry"/>
                </mxCell>
                <mxCell id="60" value="instructorDepartment" style="text;strokeColor=none;fillColor=none;align=left;verticalAlign=top;spacingLeft=4;spacingRight=4;overflow=hidden;rotatable=0;points=[[0,0.5],[1,0.5]];portConstraint=eastwest;" vertex="1" parent="2">
                    <mxGeometry y="104" width="230" height="26" as="geometry"/>
                </mxCell>
                <mxCell id="62" value="instructorPhone" style="text;strokeColor=none;fillColor=none;align=left;verticalAlign=top;spacingLeft=4;spacingRight=4;overflow=hidden;rotatable=0;points=[[0,0.5],[1,0.5]];portConstraint=eastwest;" vertex="1" parent="2">
                    <mxGeometry y="130" width="230" height="26" as="geometry"/>
                </mxCell>
                <mxCell id="66" value="office" style="text;strokeColor=none;fillColor=none;align=left;verticalAlign=top;spacingLeft=4;spacingRight=4;overflow=hidden;rotatable=0;points=[[0,0.5],[1,0.5]];portConstraint=eastwest;" vertex="1" parent="2">
                    <mxGeometry y="156" width="230" height="26" as="geometry"/>
                </mxCell>
                <mxCell id="4" value="" style="line;strokeWidth=1;fillColor=none;align=left;verticalAlign=middle;spacingTop=-1;spacingLeft=3;spacingRight=3;rotatable=0;labelPosition=right;points=[];portConstraint=eastwest;strokeColor=inherit;" parent="2" vertex="1">
                    <mxGeometry y="182" width="230" height="8" as="geometry"/>
                </mxCell>
                <mxCell id="5" value="Roster(courseSectionID, studentID)" style="text;strokeColor=none;fillColor=none;align=left;verticalAlign=top;spacingLeft=4;spacingRight=4;overflow=hidden;rotatable=0;points=[[0,0.5],[1,0.5]];portConstraint=eastwest;" parent="2" vertex="1">
                    <mxGeometry y="190" width="230" height="26" as="geometry"/>
                </mxCell>
                <mxCell id="80" value="ViewStudent(studentID)" style="text;strokeColor=none;fillColor=none;align=left;verticalAlign=top;spacingLeft=4;spacingRight=4;overflow=hidden;rotatable=0;points=[[0,0.5],[1,0.5]];portConstraint=eastwest;" vertex="1" parent="2">
                    <mxGeometry y="216" width="230" height="26" as="geometry"/>
                </mxCell>
                <mxCell id="81" value="EmailStudent(studentID)" style="text;strokeColor=none;fillColor=none;align=left;verticalAlign=top;spacingLeft=4;spacingRight=4;overflow=hidden;rotatable=0;points=[[0,0.5],[1,0.5]];portConstraint=eastwest;" vertex="1" parent="2">
                    <mxGeometry y="242" width="230" height="26" as="geometry"/>
                </mxCell>
                <mxCell id="7" value="&lt;ul style=&quot;font-size: 10px;&quot;&gt;&lt;li style=&quot;font-family: arial, helvetica, sans-serif; margin: 0px; padding-top: 0px; padding-bottom: 0px; border: 0px; outline: 0px; font-weight: inherit; font-style: inherit; list-style-position: outside; list-style-type: inherit; text-shadow: none !important;&quot;&gt;&lt;span style=&quot;margin: 0px; padding: 0px; border: 0px; outline: 0px; font-weight: inherit; font-style: inherit; text-shadow: none !important;&quot;&gt;&lt;u&gt;Users &lt;/u&gt;(including Instructors, Students, and the Office of the Registrar) should &lt;font color=&quot;#3333ff&quot;&gt;log in &lt;/font&gt;to the system with their username and password.&lt;/span&gt;&lt;/li&gt;&lt;li style=&quot;font-family: arial, helvetica, sans-serif; margin: 0px; padding-top: 0px; padding-bottom: 0px; border: 0px; outline: 0px; font-weight: inherit; font-style: inherit; list-style-position: outside; list-style-type: inherit; text-shadow: none !important;&quot;&gt;&lt;span style=&quot;margin: 0px; padding: 0px; border: 0px; outline: 0px; font-weight: inherit; font-style: inherit; text-shadow: none !important;&quot;&gt;The &lt;u&gt;Office of the Registrar &lt;/u&gt;will &lt;font color=&quot;#3333ff&quot;&gt;publish &lt;/font&gt;a class schedule before the beginning of the semester, this schedule contains information of all courses in the upcoming semester.&lt;/span&gt;&lt;/li&gt;&lt;li style=&quot;font-family: arial, helvetica, sans-serif; margin: 0px; padding-top: 0px; padding-bottom: 0px; border: 0px; outline: 0px; font-weight: inherit; font-style: inherit; list-style-position: outside; list-style-type: inherit; text-shadow: none !important;&quot;&gt;&lt;span style=&quot;margin: 0px; padding: 0px; border: 0px; outline: 0px; font-weight: inherit; font-style: inherit; text-shadow: none !important;&quot;&gt;Each &lt;u&gt;course &lt;/u&gt;should contain information about the format (on-campus/online), time, location, capacity, and instructor.&lt;/span&gt;&lt;/li&gt;&lt;li style=&quot;font-family: arial, helvetica, sans-serif; margin: 0px; padding-top: 0px; padding-bottom: 0px; border: 0px; outline: 0px; font-weight: inherit; font-style: inherit; list-style-position: outside; list-style-type: inherit; text-shadow: none !important;&quot;&gt;&lt;span style=&quot;margin: 0px; padding: 0px; border: 0px; outline: 0px; font-weight: inherit; font-style: inherit; text-shadow: none !important;&quot;&gt;&lt;u&gt;Students &lt;/u&gt;should enroll in 3 major courses and 2 elective courses in a period of time when registration is available.&lt;/span&gt;&lt;/li&gt;&lt;li style=&quot;font-family: arial, helvetica, sans-serif; margin: 0px; padding-top: 0px; padding-bottom: 0px; border: 0px; outline: 0px; font-weight: inherit; font-style: inherit; list-style-position: outside; list-style-type: inherit; text-shadow: none !important;&quot;&gt;&lt;span style=&quot;margin: 0px; padding: 0px; border: 0px; outline: 0px; font-weight: inherit; font-style: inherit; text-shadow: none !important;&quot;&gt;&lt;u&gt;Instructors &lt;/u&gt;can &lt;font color=&quot;#3333ff&quot;&gt;check the rosters &lt;/font&gt;of their courses, &lt;font color=&quot;#3333ff&quot;&gt;view students' profiles&lt;/font&gt; (ID, Name, Phone, Email), and can &lt;font color=&quot;#3333ff&quot;&gt;send emails to a selected student.&lt;/font&gt;&lt;/span&gt;&lt;/li&gt;&lt;/ul&gt;" style="text;strokeColor=none;fillColor=none;html=1;whiteSpace=wrap;verticalAlign=middle;overflow=hidden;" vertex="1" parent="1">
                    <mxGeometry x="200" y="10" width="455" height="150" as="geometry"/>
                </mxCell>
                <mxCell id="12" value="Student" style="swimlane;fontStyle=1;align=center;verticalAlign=top;childLayout=stackLayout;horizontal=1;startSize=26;horizontalStack=0;resizeParent=1;resizeParentMax=0;resizeLast=0;collapsible=1;marginBottom=0;" vertex="1" parent="1">
                    <mxGeometry x="735" y="240" width="190" height="242" as="geometry"/>
                </mxCell>
                <mxCell id="13" value="studentID" style="text;strokeColor=none;fillColor=none;align=left;verticalAlign=top;spacingLeft=4;spacingRight=4;overflow=hidden;rotatable=0;points=[[0,0.5],[1,0.5]];portConstraint=eastwest;" vertex="1" parent="12">
                    <mxGeometry y="26" width="190" height="26" as="geometry"/>
                </mxCell>
                <mxCell id="57" value="studentName" style="text;strokeColor=none;fillColor=none;align=left;verticalAlign=top;spacingLeft=4;spacingRight=4;overflow=hidden;rotatable=0;points=[[0,0.5],[1,0.5]];portConstraint=eastwest;" vertex="1" parent="12">
                    <mxGeometry y="52" width="190" height="26" as="geometry"/>
                </mxCell>
                <mxCell id="56" value="studentMajor" style="text;strokeColor=none;fillColor=none;align=left;verticalAlign=top;spacingLeft=4;spacingRight=4;overflow=hidden;rotatable=0;points=[[0,0.5],[1,0.5]];portConstraint=eastwest;" vertex="1" parent="12">
                    <mxGeometry y="78" width="190" height="26" as="geometry"/>
                </mxCell>
                <mxCell id="58" value="studentEmail" style="text;strokeColor=none;fillColor=none;align=left;verticalAlign=top;spacingLeft=4;spacingRight=4;overflow=hidden;rotatable=0;points=[[0,0.5],[1,0.5]];portConstraint=eastwest;" vertex="1" parent="12">
                    <mxGeometry y="104" width="190" height="26" as="geometry"/>
                </mxCell>
                <mxCell id="59" value="studentPhone" style="text;strokeColor=none;fillColor=none;align=left;verticalAlign=top;spacingLeft=4;spacingRight=4;overflow=hidden;rotatable=0;points=[[0,0.5],[1,0.5]];portConstraint=eastwest;" vertex="1" parent="12">
                    <mxGeometry y="130" width="190" height="26" as="geometry"/>
                </mxCell>
                <mxCell id="14" value="" style="line;strokeWidth=1;fillColor=none;align=left;verticalAlign=middle;spacingTop=-1;spacingLeft=3;spacingRight=3;rotatable=0;labelPosition=right;points=[];portConstraint=eastwest;strokeColor=inherit;" vertex="1" parent="12">
                    <mxGeometry y="156" width="190" height="8" as="geometry"/>
                </mxCell>
                <mxCell id="15" value="EnrollCourse(courseSectionID)" style="text;strokeColor=none;fillColor=none;align=left;verticalAlign=top;spacingLeft=4;spacingRight=4;overflow=hidden;rotatable=0;points=[[0,0.5],[1,0.5]];portConstraint=eastwest;" vertex="1" parent="12">
                    <mxGeometry y="164" width="190" height="26" as="geometry"/>
                </mxCell>
                <mxCell id="39" value="DropCourse(courseSectionID)" style="text;strokeColor=none;fillColor=none;align=left;verticalAlign=top;spacingLeft=4;spacingRight=4;overflow=hidden;rotatable=0;points=[[0,0.5],[1,0.5]];portConstraint=eastwest;" vertex="1" parent="12">
                    <mxGeometry y="190" width="190" height="26" as="geometry"/>
                </mxCell>
                <mxCell id="107" value="StudentSchedule(courseID)" style="text;strokeColor=none;fillColor=none;align=left;verticalAlign=top;spacingLeft=4;spacingRight=4;overflow=hidden;rotatable=0;points=[[0,0.5],[1,0.5]];portConstraint=eastwest;" vertex="1" parent="12">
                    <mxGeometry y="216" width="190" height="26" as="geometry"/>
                </mxCell>
                <mxCell id="103" style="edgeStyle=none;html=1;exitX=0.5;exitY=0;exitDx=0;exitDy=0;fontSize=10;fontColor=#FF8000;endArrow=diamondThin;endFill=0;endSize=12;startArrow=block;startFill=1;entryX=0.528;entryY=1.026;entryDx=0;entryDy=0;entryPerimeter=0;" edge="1" parent="1" source="16" target="107">
                    <mxGeometry relative="1" as="geometry">
                        <mxPoint x="1078" y="520" as="targetPoint"/>
                    </mxGeometry>
                </mxCell>
                <mxCell id="16" value="Course" style="swimlane;fontStyle=1;align=center;verticalAlign=top;childLayout=stackLayout;horizontal=1;startSize=26;horizontalStack=0;resizeParent=1;resizeParentMax=0;resizeLast=0;collapsible=1;marginBottom=0;" vertex="1" parent="1">
                    <mxGeometry x="680" y="750" width="260" height="310" as="geometry"/>
                </mxCell>
                <mxCell id="17" value="courseID" style="text;strokeColor=none;fillColor=none;align=left;verticalAlign=top;spacingLeft=4;spacingRight=4;overflow=hidden;rotatable=0;points=[[0,0.5],[1,0.5]];portConstraint=eastwest;" vertex="1" parent="16">
                    <mxGeometry y="26" width="260" height="26" as="geometry"/>
                </mxCell>
                <mxCell id="47" value="courseName" style="text;strokeColor=none;fillColor=none;align=left;verticalAlign=top;spacingLeft=4;spacingRight=4;overflow=hidden;rotatable=0;points=[[0,0.5],[1,0.5]];portConstraint=eastwest;" vertex="1" parent="16">
                    <mxGeometry y="52" width="260" height="26" as="geometry"/>
                </mxCell>
                <mxCell id="78" value="format" style="text;strokeColor=none;fillColor=none;align=left;verticalAlign=top;spacingLeft=4;spacingRight=4;overflow=hidden;rotatable=0;points=[[0,0.5],[1,0.5]];portConstraint=eastwest;" vertex="1" parent="16">
                    <mxGeometry y="78" width="260" height="26" as="geometry"/>
                </mxCell>
                <mxCell id="49" value="time" style="text;strokeColor=none;fillColor=none;align=left;verticalAlign=top;spacingLeft=4;spacingRight=4;overflow=hidden;rotatable=0;points=[[0,0.5],[1,0.5]];portConstraint=eastwest;" vertex="1" parent="16">
                    <mxGeometry y="104" width="260" height="26" as="geometry"/>
                </mxCell>
                <mxCell id="75" value="location" style="text;strokeColor=none;fillColor=none;align=left;verticalAlign=top;spacingLeft=4;spacingRight=4;overflow=hidden;rotatable=0;points=[[0,0.5],[1,0.5]];portConstraint=eastwest;" vertex="1" parent="16">
                    <mxGeometry y="130" width="260" height="26" as="geometry"/>
                </mxCell>
                <mxCell id="76" value="capacity" style="text;strokeColor=none;fillColor=none;align=left;verticalAlign=top;spacingLeft=4;spacingRight=4;overflow=hidden;rotatable=0;points=[[0,0.5],[1,0.5]];portConstraint=eastwest;" vertex="1" parent="16">
                    <mxGeometry y="156" width="260" height="26" as="geometry"/>
                </mxCell>
                <mxCell id="77" value="instructorID (FK)" style="text;strokeColor=none;fillColor=none;align=left;verticalAlign=top;spacingLeft=4;spacingRight=4;overflow=hidden;rotatable=0;points=[[0,0.5],[1,0.5]];portConstraint=eastwest;" vertex="1" parent="16">
                    <mxGeometry y="182" width="260" height="26" as="geometry"/>
                </mxCell>
                <mxCell id="98" value="courseType" style="text;strokeColor=none;fillColor=none;align=left;verticalAlign=top;spacingLeft=4;spacingRight=4;overflow=hidden;rotatable=0;points=[[0,0.5],[1,0.5]];portConstraint=eastwest;" vertex="1" parent="16">
                    <mxGeometry y="208" width="260" height="26" as="geometry"/>
                </mxCell>
                <mxCell id="99" value="registrationDeadline" style="text;strokeColor=none;fillColor=none;align=left;verticalAlign=top;spacingLeft=4;spacingRight=4;overflow=hidden;rotatable=0;points=[[0,0.5],[1,0.5]];portConstraint=eastwest;" vertex="1" parent="16">
                    <mxGeometry y="234" width="260" height="26" as="geometry"/>
                </mxCell>
                <mxCell id="18" value="" style="line;strokeWidth=1;fillColor=none;align=left;verticalAlign=middle;spacingTop=-1;spacingLeft=3;spacingRight=3;rotatable=0;labelPosition=right;points=[];portConstraint=eastwest;strokeColor=inherit;" vertex="1" parent="16">
                    <mxGeometry y="260" width="260" height="20" as="geometry"/>
                </mxCell>
                <mxCell id="55" value="&amp;nbsp;" style="text;html=1;align=left;verticalAlign=middle;resizable=0;points=[];autosize=1;strokeColor=none;fillColor=none;fontColor=#FFFFFF;" vertex="1" parent="16">
                    <mxGeometry y="280" width="260" height="30" as="geometry"/>
                </mxCell>
                <mxCell id="24" value="Registrar" style="swimlane;fontStyle=1;align=center;verticalAlign=top;childLayout=stackLayout;horizontal=1;startSize=26;horizontalStack=0;resizeParent=1;resizeParentMax=0;resizeLast=0;collapsible=1;marginBottom=0;" vertex="1" parent="1">
                    <mxGeometry x="40" y="260" width="250" height="190" as="geometry"/>
                </mxCell>
                <mxCell id="25" value="registrarID" style="text;strokeColor=none;fillColor=none;align=left;verticalAlign=top;spacingLeft=4;spacingRight=4;overflow=hidden;rotatable=0;points=[[0,0.5],[1,0.5]];portConstraint=eastwest;" vertex="1" parent="24">
                    <mxGeometry y="26" width="250" height="26" as="geometry"/>
                </mxCell>
                <mxCell id="64" value="registrarEmail" style="text;strokeColor=none;fillColor=none;align=left;verticalAlign=top;spacingLeft=4;spacingRight=4;overflow=hidden;rotatable=0;points=[[0,0.5],[1,0.5]];portConstraint=eastwest;" vertex="1" parent="24">
                    <mxGeometry y="52" width="250" height="26" as="geometry"/>
                </mxCell>
                <mxCell id="63" value="registrarPhone" style="text;strokeColor=none;fillColor=none;align=left;verticalAlign=top;spacingLeft=4;spacingRight=4;overflow=hidden;rotatable=0;points=[[0,0.5],[1,0.5]];portConstraint=eastwest;" vertex="1" parent="24">
                    <mxGeometry y="78" width="250" height="26" as="geometry"/>
                </mxCell>
                <mxCell id="65" value="office" style="text;strokeColor=none;fillColor=none;align=left;verticalAlign=top;spacingLeft=4;spacingRight=4;overflow=hidden;rotatable=0;points=[[0,0.5],[1,0.5]];portConstraint=eastwest;" vertex="1" parent="24">
                    <mxGeometry y="104" width="250" height="26" as="geometry"/>
                </mxCell>
                <mxCell id="26" value="" style="line;strokeWidth=1;fillColor=none;align=left;verticalAlign=middle;spacingTop=-1;spacingLeft=3;spacingRight=3;rotatable=0;labelPosition=right;points=[];portConstraint=eastwest;strokeColor=inherit;" vertex="1" parent="24">
                    <mxGeometry y="130" width="250" height="8" as="geometry"/>
                </mxCell>
                <mxCell id="27" value="PublishSchedule(courseID, instructorID)" style="text;strokeColor=none;fillColor=none;align=left;verticalAlign=top;spacingLeft=4;spacingRight=4;overflow=hidden;rotatable=0;points=[[0,0.5],[1,0.5]];portConstraint=eastwest;" vertex="1" parent="24">
                    <mxGeometry y="138" width="250" height="26" as="geometry"/>
                </mxCell>
                <mxCell id="70" value="EnrollStudent(courseID, StudentID)" style="text;strokeColor=none;fillColor=none;align=left;verticalAlign=top;spacingLeft=4;spacingRight=4;overflow=hidden;rotatable=0;points=[[0,0.5],[1,0.5]];portConstraint=eastwest;" vertex="1" parent="24">
                    <mxGeometry y="164" width="250" height="26" as="geometry"/>
                </mxCell>
                <mxCell id="28" value="User" style="swimlane;fontStyle=1;align=center;verticalAlign=top;childLayout=stackLayout;horizontal=1;startSize=26;horizontalStack=0;resizeParent=1;resizeParentMax=0;resizeLast=0;collapsible=1;marginBottom=0;" vertex="1" parent="1">
                    <mxGeometry x="460" y="550" width="160" height="112" as="geometry"/>
                </mxCell>
                <mxCell id="45" value="username" style="text;strokeColor=none;fillColor=none;align=left;verticalAlign=top;spacingLeft=4;spacingRight=4;overflow=hidden;rotatable=0;points=[[0,0.5],[1,0.5]];portConstraint=eastwest;" vertex="1" parent="28">
                    <mxGeometry y="26" width="160" height="26" as="geometry"/>
                </mxCell>
                <mxCell id="29" value="password" style="text;strokeColor=none;fillColor=none;align=left;verticalAlign=top;spacingLeft=4;spacingRight=4;overflow=hidden;rotatable=0;points=[[0,0.5],[1,0.5]];portConstraint=eastwest;" vertex="1" parent="28">
                    <mxGeometry y="52" width="160" height="26" as="geometry"/>
                </mxCell>
                <mxCell id="30" value="" style="line;strokeWidth=1;fillColor=none;align=left;verticalAlign=middle;spacingTop=-1;spacingLeft=3;spacingRight=3;rotatable=0;labelPosition=right;points=[];portConstraint=eastwest;strokeColor=inherit;" vertex="1" parent="28">
                    <mxGeometry y="78" width="160" height="8" as="geometry"/>
                </mxCell>
                <mxCell id="31" value="Login(username,password)" style="text;strokeColor=none;fillColor=none;align=left;verticalAlign=top;spacingLeft=4;spacingRight=4;overflow=hidden;rotatable=0;points=[[0,0.5],[1,0.5]];portConstraint=eastwest;" vertex="1" parent="28">
                    <mxGeometry y="86" width="160" height="26" as="geometry"/>
                </mxCell>
                <mxCell id="79" value="enroll in 3 major courses&lt;br&gt;and 2 elective courses in a period&lt;br&gt;of time when registration is available" style="text;html=1;align=center;verticalAlign=middle;resizable=0;points=[];autosize=1;strokeColor=none;fillColor=none;fontSize=10;fontColor=#FF8000;" vertex="1" parent="1">
                    <mxGeometry x="740" y="180" width="180" height="50" as="geometry"/>
                </mxCell>
                <mxCell id="82" value="&lt;font color=&quot;#ff8000&quot;&gt;Check roster&lt;br&gt;view student profile&lt;br&gt;email student&lt;br&gt;&lt;/font&gt;" style="text;html=1;align=center;verticalAlign=middle;resizable=0;points=[];autosize=1;strokeColor=none;fillColor=none;fontSize=10;fontColor=#3333FF;" vertex="1" parent="1">
                    <mxGeometry x="50" y="978" width="110" height="50" as="geometry"/>
                </mxCell>
                <mxCell id="87" value="" style="endArrow=block;endFill=0;endSize=12;html=1;fontSize=10;fontColor=#FF8000;entryX=0;entryY=0;entryDx=0;entryDy=0;exitX=1;exitY=0.5;exitDx=0;exitDy=0;" edge="1" parent="1" source="27" target="28">
                    <mxGeometry width="160" relative="1" as="geometry">
                        <mxPoint x="350" y="410" as="sourcePoint"/>
                        <mxPoint x="510" y="410" as="targetPoint"/>
                    </mxGeometry>
                </mxCell>
                <mxCell id="88" style="edgeStyle=none;html=1;exitX=0;exitY=0.5;exitDx=0;exitDy=0;fontSize=10;fontColor=#FF8000;endArrow=block;endFill=0;endSize=12;" edge="1" parent="1" source="59">
                    <mxGeometry relative="1" as="geometry">
                        <mxPoint x="620" y="550" as="targetPoint"/>
                    </mxGeometry>
                </mxCell>
                <mxCell id="90" value="User is a Parent-Class to Child-Classes Registrar, Student and Instructor." style="text;html=1;align=center;verticalAlign=middle;resizable=0;points=[];autosize=1;strokeColor=none;fillColor=none;fontSize=10;fontColor=#FF8000;" vertex="1" parent="1">
                    <mxGeometry x="240" y="150" width="350" height="30" as="geometry"/>
                </mxCell>
                <mxCell id="94" value="1" style="endArrow=open;html=1;endSize=12;startArrow=diamondThin;startSize=14;startFill=1;edgeStyle=orthogonalEdgeStyle;align=left;verticalAlign=bottom;fontSize=10;fontColor=#FF8000;exitX=1;exitY=0.5;exitDx=0;exitDy=0;entryX=0;entryY=0.5;entryDx=0;entryDy=0;" edge="1" parent="1" source="62" target="49">
                    <mxGeometry x="-1" y="3" relative="1" as="geometry">
                        <mxPoint x="360" y="860" as="sourcePoint"/>
                        <mxPoint x="520" y="860" as="targetPoint"/>
                    </mxGeometry>
                </mxCell>
                <mxCell id="97" value="1..*" style="text;html=1;align=center;verticalAlign=middle;resizable=0;points=[];autosize=1;strokeColor=none;fillColor=none;fontSize=10;fontColor=#FF8000;" vertex="1" parent="1">
                    <mxGeometry x="640" y="840" width="40" height="30" as="geometry"/>
                </mxCell>
                <mxCell id="100" value="registration deadline cuts off enrollment &lt;br&gt;when registration is no longer available." style="text;html=1;align=center;verticalAlign=middle;resizable=0;points=[];autosize=1;strokeColor=none;fillColor=none;fontSize=10;fontColor=#FF8000;" vertex="1" parent="1">
                    <mxGeometry x="870" y="1060" width="200" height="40" as="geometry"/>
                </mxCell>
                <mxCell id="105" value="5" style="text;html=1;align=center;verticalAlign=middle;resizable=0;points=[];autosize=1;strokeColor=none;fillColor=none;fontSize=10;fontColor=#FF8000;" vertex="1" parent="1">
                    <mxGeometry x="815" y="720" width="30" height="30" as="geometry"/>
                </mxCell>
                <mxCell id="106" value="Student Enrolls" style="text;html=1;align=center;verticalAlign=middle;resizable=0;points=[];autosize=1;strokeColor=none;fillColor=none;fontSize=10;fontColor=#FF8000;" vertex="1" parent="1">
                    <mxGeometry x="830" y="591" width="90" height="30" as="geometry"/>
                </mxCell>
                <mxCell id="104" value="1..*" style="text;html=1;align=center;verticalAlign=middle;resizable=0;points=[];autosize=1;strokeColor=none;fillColor=none;fontSize=10;fontColor=#FF8000;" vertex="1" parent="1">
                    <mxGeometry x="755" y="482" width="190" height="30" as="geometry"/>
                </mxCell>
                <mxCell id="109" value="Use" style="endArrow=open;endSize=12;dashed=1;html=1;fontSize=10;fontColor=#FF8000;exitX=0.429;exitY=1.006;exitDx=0;exitDy=0;exitPerimeter=0;entryX=0.5;entryY=0;entryDx=0;entryDy=0;" edge="1" parent="1" source="70" target="2">
                    <mxGeometry width="160" relative="1" as="geometry">
                        <mxPoint x="50" y="580" as="sourcePoint"/>
                        <mxPoint x="210" y="580" as="targetPoint"/>
                    </mxGeometry>
                </mxCell>
                <mxCell id="110" value="Use" style="endArrow=open;endSize=12;dashed=1;html=1;fontSize=10;fontColor=#FF8000;exitX=1;exitY=0.5;exitDx=0;exitDy=0;" edge="1" parent="1" source="63" target="58">
                    <mxGeometry width="160" relative="1" as="geometry">
                        <mxPoint x="390" y="354.58000000000004" as="sourcePoint"/>
                        <mxPoint x="550" y="354.58000000000004" as="targetPoint"/>
                    </mxGeometry>
                </mxCell>
                <mxCell id="111" value="EnrollStudent" style="text;html=1;align=center;verticalAlign=middle;resizable=0;points=[];autosize=1;strokeColor=none;fillColor=none;fontSize=10;fontColor=#FF8000;" vertex="1" parent="1">
                    <mxGeometry x="500" y="360" width="80" height="30" as="geometry"/>
                </mxCell>
                <mxCell id="112" value="Instructor Teaches" style="text;html=1;align=center;verticalAlign=middle;resizable=0;points=[];autosize=1;strokeColor=none;fillColor=none;fontSize=10;fontColor=#FF8000;" vertex="1" parent="1">
                    <mxGeometry x="350" y="829" width="110" height="30" as="geometry"/>
                </mxCell>
                <mxCell id="113" value="Use" style="endArrow=open;endSize=12;dashed=1;html=1;fontSize=10;fontColor=#FF8000;exitX=1;exitY=0.5;exitDx=0;exitDy=0;entryX=0.032;entryY=1.122;entryDx=0;entryDy=0;entryPerimeter=0;" edge="1" parent="1" source="61" target="107">
                    <mxGeometry width="160" relative="1" as="geometry">
                        <mxPoint x="250" y="810" as="sourcePoint"/>
                        <mxPoint x="410" y="810" as="targetPoint"/>
                        <Array as="points">
                            <mxPoint x="610" y="720"/>
                        </Array>
                    </mxGeometry>
                </mxCell>
            </root>
        </mxGraphModel>
    </diagram>
</mxfile>